<svg xmlns="http://www.w3.org/2000/svg" xmlns:xlink="http://www.w3.org/1999/xlink"><defs><clipPath id="clip0"><path fill="#fff" transform="translate(.977 .721)" d="M0 0h20v27H0z"/></clipPath></defs><symbol id="icn_fb"><path d="M16.067 13.045l.445-2.895h-2.779V8.27c0-.791.388-1.564 1.633-1.564h1.263V4.241s-1.146-.195-2.242-.195c-2.288 0-3.784 1.387-3.784 3.897v2.207H8.06v2.896h2.543v7h3.13v-7h2.334z" fill="#A6AAB7"/></symbol><symbol id="icn_ig"><path d="M12.344 4.045c-2.174 0-2.445.01-3.296.046-.855.042-1.433.175-1.943.373a3.924 3.924 0 00-1.416.924 3.879 3.879 0 00-.925 1.417c-.198.51-.33 1.088-.372 1.942-.039.852-.047 1.122-.047 3.297 0 2.174.01 2.445.047 3.296.042.852.174 1.433.372 1.943.202.534.517 1.017.925 1.416.398.41.882.725 1.416.925.51.195 1.09.33 1.943.372.851.039 1.122.047 3.296.047 2.175 0 2.446-.01 3.297-.047.852-.042 1.432-.177 1.942-.372A3.923 3.923 0 0019 18.699c.409-.398.725-.881.924-1.416.196-.51.33-1.09.373-1.943.038-.851.046-1.122.046-3.296 0-2.175-.01-2.446-.046-3.297-.042-.852-.178-1.435-.373-1.942A3.923 3.923 0 0019 5.388a3.858 3.858 0 00-1.417-.924c-.51-.198-1.09-.33-1.942-.373-.852-.038-1.122-.046-3.297-.046zm0 1.44c2.136 0 2.39.01 3.235.046.778.037 1.202.167 1.484.277.348.128.663.333.922.598.265.258.468.573.596.92.11.281.24.705.276 1.484.036.844.047 1.1.047 3.234 0 2.135-.01 2.39-.05 3.235-.042.778-.172 1.202-.281 1.484a2.6 2.6 0 01-.6.922c-.26.264-.574.467-.922.596-.278.11-.708.24-1.49.276-.848.036-1.098.047-3.239.047-2.14 0-2.39-.01-3.24-.05-.778-.042-1.208-.172-1.49-.281a2.51 2.51 0 01-.919-.6 2.402 2.402 0 01-.598-.922c-.112-.278-.24-.708-.282-1.49-.028-.838-.042-1.098-.042-3.229 0-2.13.014-2.39.042-3.24.042-.78.17-1.21.282-1.489.138-.38.317-.64.598-.922a2.41 2.41 0 01.92-.6c.281-.109.7-.239 1.482-.278.848-.03 1.098-.041 3.236-.041l.033.023zm0 2.453A4.105 4.105 0 009.44 14.95a4.104 4.104 0 004.476.89 4.104 4.104 0 002.223-5.366 4.104 4.104 0 00-3.795-2.535zm0 6.773a2.665 2.665 0 01-2.666-2.666 2.665 2.665 0 012.666-2.667 2.665 2.665 0 012.667 2.667 2.665 2.665 0 01-2.667 2.666zm5.232-6.937a.962.962 0 01-1.92.001.958.958 0 01.959-.96c.528 0 .961.43.961.96z" fill="#A6AAB7"/></symbol><symbol id="icn_location"><g clip-path="url(#clip0)"><path fill-rule="evenodd" clip-rule="evenodd" d="M10.977 13.378c-1.38 0-2.5-1.133-2.5-2.532 0-1.398 1.12-2.53 2.5-2.53s2.5 1.132 2.5 2.53c0 1.399-1.12 2.532-2.5 2.532zm0-6.75c-2.3 0-4.167 1.888-4.167 4.218s1.866 4.22 4.167 4.22c2.3 0 4.167-1.89 4.167-4.22s-1.866-4.218-4.167-4.218zm0 18.562c-1.386.008-8.333-10.816-8.333-14.344 0-4.659 3.73-8.437 8.333-8.437 4.602 0 8.333 3.778 8.333 8.437 0 3.48-6.969 14.352-8.333 14.344zm0-24.469c-5.522 0-10 4.534-10 10.125 0 4.234 8.338 16.885 10 16.875 1.637.01 10-12.698 10-16.875 0-5.591-4.477-10.125-10-10.125z" fill="#fff"/></g></symbol><symbol id="icn_notifications"><path d="M19.175 16.821l.79-.614-.79.614zm-5.01-11.403l.396-.918-.396.918zm-.424-.47l-.963.27.001.002.962-.273zm-3.749 0l.963.27.001-.003-.964-.267zm-.423.47L9.173 4.5l.396.918zm-3.146 5.418h1-1zM4.556 16.82l.789.615-.789-.615zm9.077 3.576l-.768-.64.768.64zm-3.535 0l.768-.64-.768.64zm9.866-4.19c-.585-.751-.937-1.15-1.2-1.82-.264-.67-.454-1.67-.454-3.551h-2c0 1.987.196 3.277.592 4.283.395 1.004.976 1.665 1.485 2.317l1.577-1.23zm-1.654-5.371c0-1.94-.475-3.36-1.232-4.397-.752-1.03-1.713-1.592-2.517-1.939l-.792 1.836c.616.266 1.227.643 1.693 1.282.461.632.848 1.615.848 3.218h2zM14.56 4.5c.05.021.072.043.082.054.01.01.04.046.062.121l-1.925.545c.148.521.554.929.99 1.117L14.56 4.5zm.144.177c-.315-1.125-1.287-2.402-2.838-2.402v2c.305 0 .73.29.912.942l1.926-.54zm-2.838-2.402c-1.551 0-2.525 1.278-2.837 2.406l1.927.534c.18-.65.605-.94.91-.94v-2zM9.029 4.68a.303.303 0 01.065-.126.22.22 0 01.08-.053l.79 1.837a1.77 1.77 0 00.991-1.12L9.03 4.68zm.143-.179c-.803.347-1.765.907-2.517 1.938-.757 1.038-1.232 2.456-1.232 4.398h2c0-1.605.387-2.588.848-3.22.465-.637 1.076-1.013 1.694-1.28L9.172 4.5zm-3.749 6.335c0 1.88-.19 2.882-.454 3.551-.265.671-.617 1.07-1.202 1.82l1.578 1.23c.508-.652 1.089-1.313 1.484-2.316.397-1.007.593-2.296.594-4.284h-2zm-1.656 5.372c-.962 1.235-.104 3.068 1.525 3.068v-2c-.009 0 .006 0 .028.014a.1.1 0 01.036.04c.006.012.01.03.009.05a.113.113 0 01-.02.057l-1.578-1.23zm1.525 3.068h13.151v-2H5.293v2zm13.151 0c1.634 0 2.475-1.843 1.521-3.068l-1.578 1.229a.114.114 0 01-.02-.058.091.091 0 01.008-.048.1.1 0 01.036-.04c.023-.015.04-.015.034-.015v2zm-5.078-1c0 .584-.194 1.115-.5 1.482l1.536 1.28c.632-.758.964-1.754.964-2.762h-2zm-.5 1.482c-.302.361-.667.518-1 .518v2c.993 0 1.9-.474 2.536-1.238l-1.536-1.28zm-1 .518c-.333 0-.698-.157-1-.518l-1.536 1.28c.637.764 1.543 1.238 2.536 1.238v-2zm-1-.518c-.305-.367-.5-.898-.5-1.482h-2c0 1.008.332 2.004.964 2.762l1.537-1.28z" fill="#A6AAB7"/></symbol><symbol id="icn_search"><path fill-rule="evenodd" clip-rule="evenodd" d="M18.365 11.275a7 7 0 11-14 0 7 7 0 0114 0zm-1.382 7.032a9 9 0 111.414-1.414l3.443 3.443a1 1 0 11-1.414 1.414l-3.443-3.443z" fill="#A6AAB7"/></symbol><symbol id="icn_telegram"><path d="M19.587 4.41c-.21.015-.416.064-.61.146h-.003c-.186.074-1.073.446-2.42 1.012L11.725 7.6l-6.87 2.895.04-.016s-.235.078-.48.246a1.327 1.327 0 00-.383.37 1.09 1.09 0 00-.181.727c.058.472.365.755.584.911.223.159.435.233.435.233h.005l3.194 1.076c.143.46.973 3.188 1.173 3.817.117.375.232.61.375.79.07.09.15.168.248.229.05.03.105.053.16.07l-.032-.009c.01.003.018.01.025.013.026.008.044.01.077.016.506.153.912-.161.912-.161l.023-.019 1.886-1.717 3.16 2.425.072.03c.659.29 1.326.129 1.679-.155.355-.286.493-.651.493-.651l.023-.06 2.442-12.51c.07-.31.087-.598.01-.879a1.182 1.182 0 00-.51-.685 1.224 1.224 0 00-.698-.176zm-.066 1.34c-.003.042.005.037-.013.116v.008l-2.42 12.382c-.01.017-.028.056-.076.094-.051.041-.092.066-.305-.018l-3.865-2.964-2.335 2.129.49-3.133 6.316-5.887c.26-.242.174-.293.174-.293.018-.297-.394-.087-.394-.087L9.13 13.03l-.002-.013-3.818-1.286v-.002l-.01-.002a.195.195 0 00.02-.008l.021-.01.02-.008 6.873-2.895c1.735-.73 3.483-1.466 4.827-2.034a407.88 407.88 0 012.394-1c.054-.022.028-.022.067-.022z" fill="#A6AAB7"/></symbol><symbol id="icn_youtube"><path d="M20.967 7.58a2.356 2.356 0 00-.573-1.06 2.263 2.263 0 00-1.014-.622c-1.407-.353-7.036-.353-7.036-.353s-5.629 0-7.036.387a2.263 2.263 0 00-1.013.621 2.356 2.356 0 00-.574 1.06 25.045 25.045 0 00-.376 4.449c-.01 1.502.117 3.003.376 4.482.107.386.31.738.588 1.02a2.26 2.26 0 001 .594c1.406.387 7.035.387 7.035.387s5.629 0 7.036-.387a2.263 2.263 0 001.014-.622c.278-.295.476-.66.573-1.06.256-1.456.382-2.934.377-4.414a25.038 25.038 0 00-.377-4.482v0z" stroke="#A6AAB7" stroke-width="2" stroke-linecap="round" stroke-linejoin="round"/><path d="M10.344 15.545l5-3-5-3v6z" stroke="#A6AAB7" stroke-width="2" stroke-linecap="round" stroke-linejoin="round"/></symbol></svg>