<svg xmlns="http://www.w3.org/2000/svg" xmlns:xlink="http://www.w3.org/1999/xlink"><defs><clipPath id="clip0"><path fill="#fff" transform="translate(.589)" d="M0 0h18v18H0z"/></clipPath><clipPath id="clip4"><path fill="#fff" transform="translate(.573 .657)" d="M0 0h24v24H0z"/></clipPath><clipPath id="clip3"><path fill="#fff" transform="translate(.977 .721)" d="M0 0h20v27H0z"/></clipPath><clipPath id="clip5"><path fill="#fff" transform="translate(.236 .515)" d="M0 0h24v24H0z"/></clipPath><clipPath id="clip0"><path fill="#fff" transform="translate(.89 .43)" d="M0 0h16v16H0z"/></clipPath><clipPath id="clip6"><path fill="#fff" transform="translate(.236 .515)" d="M0 0h24v24H0z"/></clipPath><clipPath id="clip0"><path fill="#fff" transform="translate(.236 .515)" d="M0 0h24v24H0z"/></clipPath></defs><symbol id="icn_add-stick-player" viewBox="0 0 19 19"><path fill-rule="evenodd" clip-rule="evenodd" d="M9.034.5a1 1 0 00-1 1v7.296h-7a1 1 0 000 2h7V17.5a1 1 0 102 0v-6.704h7a1 1 0 100-2h-7V1.5a1 1 0 00-1-1z" fill="#A6AAB7"/></symbol><symbol id="icn_add-white-big"><path fill-rule="evenodd" clip-rule="evenodd" d="M17.418.463c-.963 0-1.743.78-1.743 1.743v13.682H2.426a1.743 1.743 0 000 3.486h13.249V32.19a1.743 1.743 0 103.486 0V19.374H32.41a1.743 1.743 0 000-3.486H19.16V2.206c0-.963-.78-1.743-1.743-1.743z" fill="#fff"/></symbol><symbol id="icn_add-white"><path clip-rule="evenodd" d="M11.167.276c-.62 0-1.123.503-1.123 1.123v8.815H1.508a1.123 1.123 0 100 2.246h8.536v8.257a1.123 1.123 0 002.246 0V12.46h8.536a1.123 1.123 0 100-2.246H12.29V1.4c0-.62-.503-1.123-1.123-1.123z"/></symbol><symbol id="icn_add"><path fill-rule="evenodd" clip-rule="evenodd" d="M11.167.276c-.62 0-1.123.503-1.123 1.123v8.815H1.508a1.123 1.123 0 100 2.246h8.536v8.257a1.123 1.123 0 002.246 0V12.46h8.536a1.123 1.123 0 100-2.246H12.29V1.4c0-.62-.503-1.123-1.123-1.123z" fill="#0191D3" stroke="#0191D3"/></symbol><symbol id="icn_burger"><path fill="#A6AAB7" d="M0 .577h14v2H0zM0 5h14v2H0zm0 4.423h14v2H0z"/></symbol><symbol id="icn_calendar"><path d="M15.093 10.304h-4.375v4.166h4.375v-4.166zm-.875-9.167v1.667h-7V1.137h-1.75v1.667h-.875c-.971 0-1.741.75-1.741 1.666l-.009 11.667c0 .917.779 1.667 1.75 1.667h12.25c.963 0 1.75-.75 1.75-1.667V4.47c0-.916-.787-1.666-1.75-1.666h-.875V1.137h-1.75zm2.625 15H4.593V5.389h12.25v10.748z" fill="#0191D3"/></symbol><symbol id="icn_comment" viewBox="0 0 28 23"><path d="M1.21 11.195c0 5.327 5.647 9.646 12.614 9.646 1.851 0 3.61-.305 5.194-.853 1.107-.383 5.142 1.122 7.092 1.9.407.161.83-.237.689-.652-.63-1.856-1.775-5.512-1.328-6.331a7.703 7.703 0 00.967-3.71c0-5.328-5.648-9.646-12.614-9.646-6.967 0-12.614 4.318-12.614 9.646z" stroke="#0191D3" stroke-width="1.7" fill="#161929"/></symbol><symbol id="icn_copy"><path d="M17.143 4.286H2.57A2.571 2.571 0 000 6.857V21.43A2.571 2.571 0 002.571 24h14.572a2.571 2.571 0 002.571-2.57V6.857a2.571 2.571 0 00-2.571-2.571zM18 21.428a.857.857 0 01-.857.858H2.57a.857.857 0 01-.857-.858V6.858c0-.474.384-.858.857-.858h14.572c.473 0 .857.384.857.857V21.43z"/><path d="M21.429 0H6a2.571 2.571 0 00-2.57 2.571.857.857 0 101.714 0c0-.473.384-.857.857-.857H21.43c.473 0 .857.384.857.857V18a.857.857 0 01-.857.857.857.857 0 000 1.715A2.571 2.571 0 0024 18V2.571A2.571 2.571 0 0021.43 0z"/></symbol><symbol id="icn_fb-reg"><path d="M25.022 2.259l-3.819-.006c-4.29 0-7.062 2.833-7.062 7.219V12.8H10.3a.6.6 0 00-.6.599v4.822a.6.6 0 00.6.598h3.84v12.17a.6.6 0 00.6.597h5.01a.6.6 0 00.6-.598V18.82h4.49a.6.6 0 00.6-.598l.002-4.822a.598.598 0 00-.601-.599h-4.49V9.98c0-1.356.323-2.045 2.097-2.045h2.572a.6.6 0 00.6-.599V2.857a.6.6 0 00-.599-.598z" fill="#fff"/></symbol><symbol id="icn_fb"><path d="M16.067 13.045l.445-2.895h-2.779V8.27c0-.791.388-1.564 1.633-1.564h1.263V4.241s-1.146-.195-2.242-.195c-2.288 0-3.784 1.387-3.784 3.897v2.207H8.06v2.896h2.543v7h3.13v-7h2.334z" fill="#A6AAB7"/></symbol><symbol id="icn_fullscreen" viewBox="0 0 36 36"><path d="M10.837 21.365H7.92v7.291h7.292V25.74h-4.375v-4.375zM7.92 15.53h2.917v-4.375h4.375V8.24H7.92v7.291zm17.5 10.209h-4.375v2.916h7.292v-7.291H25.42v4.375zm-4.375-17.5v2.916h4.375v4.375h2.917V8.24h-7.292z" fill="#fff"/></symbol><symbol id="icn_google-reg"><path d="M17.37 14.924h13.58c.149.811.224 1.586.224 2.325 0 2.627-.568 4.973-1.704 7.037-1.137 2.065-2.757 3.678-4.86 4.84-2.105 1.163-4.518 1.744-7.24 1.744-1.96 0-3.827-.366-5.6-1.099-1.773-.732-3.302-1.722-4.588-2.97-1.286-1.246-2.307-2.73-3.063-4.449a13.354 13.354 0 01-1.133-5.43c0-1.901.378-3.711 1.133-5.43.756-1.72 1.777-3.203 3.063-4.45 1.286-1.247 2.815-2.237 4.588-2.97a14.523 14.523 0 015.6-1.098c3.746 0 6.961 1.216 9.646 3.65l-3.914 3.65c-1.536-1.44-3.447-2.16-5.732-2.16a8.8 8.8 0 00-4.467 1.18 8.833 8.833 0 00-3.25 3.205 8.526 8.526 0 00-1.198 4.423c0 1.598.4 3.072 1.199 4.422a8.833 8.833 0 003.25 3.206 8.799 8.799 0 004.466 1.18c1.087 0 2.086-.145 2.997-.436.912-.29 1.66-.654 2.248-1.09a8.016 8.016 0 001.535-1.489c.437-.557.759-1.083.965-1.58a6.51 6.51 0 00.421-1.416H17.37v-4.795z" fill="#fff"/></symbol><symbol id="icn_headphones" viewBox="0 0 19 18"><g clip-path="url(#clip0)" fill="#fff"><path d="M9.589 1.09c-4.943 0-9 4.021-9 8.965v4.218c0 .873.71 1.582 1.582 1.582h.527v-5.273h-.527a1.56 1.56 0 00-.527.097v-.624c0-4.362 3.583-7.91 7.945-7.91s7.945 3.548 7.945 7.91v.624a1.564 1.564 0 00-.527-.097h-.527v5.273h.527c.872 0 1.582-.71 1.582-1.582v-4.218c0-4.944-4.057-8.965-9-8.965z"/><path d="M5.335 9.527h-.527c-.583 0-1.055.473-1.055 1.055v5.273c0 .583.472 1.055 1.055 1.055h.527a.527.527 0 00.527-.527v-6.328a.527.527 0 00-.527-.528zm9.035 0h-.527a.527.527 0 00-.527.528v6.328c0 .291.236.527.527.527h.527c.583 0 1.055-.472 1.055-1.055v-5.273c0-.582-.472-1.055-1.055-1.055z"/></g></symbol><symbol id="icn_ig-color"><g fill="#FFC107"><path d="M16.736.515h-9a7.5 7.5 0 00-7.5 7.5v9a7.5 7.5 0 007.5 7.5h9a7.5 7.5 0 007.5-7.5v-9a7.5 7.5 0 00-7.5-7.5zm5.25 16.5a5.256 5.256 0 01-5.25 5.25h-9a5.256 5.256 0 01-5.25-5.25v-9a5.256 5.256 0 015.25-5.25h9a5.256 5.256 0 015.25 5.25v9z"/><path d="M12.236 6.515a6 6 0 100 12 6 6 0 000-12zm0 9.75a3.755 3.755 0 01-3.75-3.75 3.754 3.754 0 013.75-3.75 3.754 3.754 0 013.75 3.75 3.755 3.755 0 01-3.75 3.75zm6.45-9.401a.8.8 0 100-1.599.8.8 0 000 1.599z"/></g></symbol><symbol id="icn_ig-reg"><path d="M20.726 7.65c-3.624 0-4.075.018-5.494.078-1.424.07-2.387.29-3.237.62A6.54 6.54 0 009.634 9.89a6.465 6.465 0 00-1.54 2.36c-.33.85-.552 1.814-.622 3.238-.064 1.42-.077 1.87-.077 5.494 0 3.624.017 4.076.077 5.494.07 1.42.291 2.388.621 3.238a6.54 6.54 0 001.54 2.36 6.465 6.465 0 002.362 1.541c.85.326 1.817.551 3.237.621 1.42.064 1.87.078 5.494.078 3.625 0 4.076-.018 5.495-.078 1.42-.07 2.387-.296 3.237-.62a6.54 6.54 0 002.36-1.541 6.43 6.43 0 001.542-2.361c.326-.85.55-1.818.62-3.238.065-1.419.078-1.87.078-5.494 0-3.624-.017-4.076-.077-5.494-.07-1.42-.296-2.393-.621-3.238a6.54 6.54 0 00-1.541-2.36 6.43 6.43 0 00-2.36-1.541c-.85-.33-1.818-.551-3.238-.621-1.42-.064-1.87-.078-5.495-.078zm0 2.4c3.56 0 3.985.018 5.391.078 1.298.06 2.004.277 2.474.46a4.17 4.17 0 011.536.998c.442.43.782.954.994 1.533.183.469.4 1.176.46 2.473.06 1.407.078 1.833.078 5.39 0 3.56-.018 3.985-.083 5.392-.07 1.297-.286 2.004-.469 2.473a4.335 4.335 0 01-.999 1.537c-.433.44-.958.779-1.537.993-.463.183-1.18.4-2.482.46-1.414.06-1.83.078-5.4.078-3.568 0-3.983-.017-5.4-.082-1.297-.07-2.013-.287-2.482-.47-.633-.252-1.067-.533-1.532-.998-.47-.47-.768-.916-.998-1.537-.186-.463-.4-1.18-.469-2.483-.047-1.397-.07-1.83-.07-5.382 0-3.55.023-3.984.07-5.4.07-1.302.283-2.017.47-2.482.23-.634.528-1.067.997-1.536.464-.465.899-.765 1.532-1 .47-.182 1.168-.399 2.47-.464 1.414-.05 1.831-.069 5.394-.069l.055.038zm0 4.09a6.84 6.84 0 00-6.844 6.844 6.842 6.842 0 009.464 6.324 6.843 6.843 0 002.22-11.165 6.841 6.841 0 00-4.84-2.003zm0 11.288a4.441 4.441 0 01-4.444-4.444 4.441 4.441 0 014.444-4.444 4.441 4.441 0 014.445 4.444 4.441 4.441 0 01-4.445 4.444zm8.72-11.562a1.602 1.602 0 01-3.08.614 1.599 1.599 0 011.478-2.211c.88 0 1.602.716 1.602 1.597z" fill="#fff"/></symbol><symbol id="icn_ig"><path d="M12.344 4.045c-2.174 0-2.445.01-3.296.046-.855.042-1.433.175-1.943.373a3.924 3.924 0 00-1.416.924 3.879 3.879 0 00-.925 1.417c-.198.51-.33 1.088-.372 1.942-.039.852-.047 1.122-.047 3.297 0 2.174.01 2.445.047 3.296.042.852.174 1.433.372 1.943.202.534.517 1.017.925 1.416.398.41.882.725 1.416.925.51.195 1.09.33 1.943.372.851.039 1.122.047 3.296.047 2.175 0 2.446-.01 3.297-.047.852-.042 1.432-.177 1.942-.372A3.923 3.923 0 0019 18.699c.409-.398.725-.881.924-1.416.196-.51.33-1.09.373-1.943.038-.851.046-1.122.046-3.296 0-2.175-.01-2.446-.046-3.297-.042-.852-.178-1.435-.373-1.942A3.923 3.923 0 0019 5.388a3.858 3.858 0 00-1.417-.924c-.51-.198-1.09-.33-1.942-.373-.852-.038-1.122-.046-3.297-.046zm0 1.44c2.136 0 2.39.01 3.235.046.778.037 1.202.167 1.484.277.348.128.663.333.922.598.265.258.468.573.596.92.11.281.24.705.276 1.484.036.844.047 1.1.047 3.234 0 2.135-.01 2.39-.05 3.235-.042.778-.172 1.202-.281 1.484a2.6 2.6 0 01-.6.922c-.26.264-.574.467-.922.596-.278.11-.708.24-1.49.276-.848.036-1.098.047-3.239.047-2.14 0-2.39-.01-3.24-.05-.778-.042-1.208-.172-1.49-.281a2.51 2.51 0 01-.919-.6 2.402 2.402 0 01-.598-.922c-.112-.278-.24-.708-.282-1.49-.028-.838-.042-1.098-.042-3.229 0-2.13.014-2.39.042-3.24.042-.78.17-1.21.282-1.489.138-.38.317-.64.598-.922a2.41 2.41 0 01.92-.6c.281-.109.7-.239 1.482-.278.848-.03 1.098-.041 3.236-.041l.033.023zm0 2.453A4.105 4.105 0 009.44 14.95a4.104 4.104 0 004.476.89 4.104 4.104 0 002.223-5.366 4.104 4.104 0 00-3.795-2.535zm0 6.773a2.665 2.665 0 01-2.666-2.666 2.665 2.665 0 012.666-2.667 2.665 2.665 0 012.667 2.667 2.665 2.665 0 01-2.667 2.666zm5.232-6.937a.962.962 0 01-1.92.001.958.958 0 01.959-.96c.528 0 .961.43.961.96z" fill="#A6AAB7"/></symbol><symbol id="icn_like-color"><path d="M12.9 22.7l-.4-.2h0C10 21.3 4.2 17.8 2.2 12.3c-.3-1-1-5.2 1.3-7.8C5 2.9 6.3 2.7 7.2 2.7c2 0 4.3 1.2 5.6 3 1.3-2 3.3-3 5.6-3 .9 0 2.2.2 3.7 1.8 2.4 2.6 1.7 6.9 1.3 7.8-2 5.6-7.8 9-10 10.2l-.6.2z" stroke="#0191D3" stroke-width="2" stroke-linecap="round" stroke-linejoin="round" fill="#161929"/></symbol><symbol id="icn_like"><path d="M12.9 22.7l-.4-.2h0C10 21.3 4.2 17.8 2.2 12.3c-.3-1-1-5.2 1.3-7.8C5 2.9 6.3 2.7 7.2 2.7c2 0 4.3 1.2 5.6 3 1.3-2 3.3-3 5.6-3 .9 0 2.2.2 3.7 1.8 2.4 2.6 1.7 6.9 1.3 7.8-2 5.6-7.8 9-10 10.2l-.6.2z" stroke="#fff" stroke-width="2" stroke-linecap="round" stroke-linejoin="round" fill="#161929"/></symbol><symbol id="icn_likes"><path fill-rule="evenodd" clip-rule="evenodd" d="M9.214 3.436a.49.49 0 01-.647 0 3.81 3.81 0 00-.458-.35 4.078 4.078 0 00-2.218-.655c-2.054 0-3.667 1.582-3.667 3.596 0 .716.17 1.396.463 2.042.905 2.007 2.98 3.701 4.767 5.16.262.213.518.422.763.626.389.323.958.323 1.347 0 .245-.204.501-.413.763-.627 1.787-1.458 3.862-3.152 4.768-5.159a4.924 4.924 0 00.462-2.042c0-2.014-1.613-3.596-3.666-3.596-.799 0-1.575.235-2.219.655a3.811 3.811 0 00-.458.35zm-.964 8.715a1.013 1.013 0 001.295-.011l.555-.455c.73-.603 1.445-1.216 2.078-1.858.783-.794 1.365-1.559 1.705-2.314a3.61 3.61 0 00.341-1.486c0-1.253-.992-2.263-2.333-2.263-.793 0-1.532.342-1.993.874l-.705.812a.4.4 0 01-.604 0l-.705-.812c-.462-.532-1.201-.874-1.993-.874-1.342 0-2.334 1.01-2.334 2.263 0 .495.118.988.342 1.486.339.755.921 1.52 1.704 2.314.633.642 1.348 1.255 2.079 1.858a152.504 152.504 0 00.568.466z" fill="#A6AAB7"/></symbol><symbol id="icn_load"><g clip-path="url(#clip4)" stroke="#fff" stroke-width="2" stroke-linecap="round" stroke-linejoin="round"><path d="M4.573 12.657v8a2 2 0 002 2h12a2 2 0 002-2v-8m-4-6l-4-4-4 4m4-4v13"/></g></symbol><symbol id="icn_location"><g clip-path="url(#clip3)"><path fill-rule="evenodd" clip-rule="evenodd" d="M10.977 13.378c-1.38 0-2.5-1.133-2.5-2.532 0-1.398 1.12-2.53 2.5-2.53s2.5 1.132 2.5 2.53c0 1.399-1.12 2.532-2.5 2.532zm0-6.75c-2.3 0-4.167 1.888-4.167 4.218s1.866 4.22 4.167 4.22c2.3 0 4.167-1.89 4.167-4.22s-1.866-4.218-4.167-4.218zm0 18.562c-1.386.008-8.333-10.816-8.333-14.344 0-4.659 3.73-8.437 8.333-8.437 4.602 0 8.333 3.778 8.333 8.437 0 3.48-6.969 14.352-8.333 14.344zm0-24.469c-5.522 0-10 4.534-10 10.125 0 4.234 8.338 16.885 10 16.875 1.637.01 10-12.698 10-16.875 0-5.591-4.477-10.125-10-10.125z" fill="#fff"/></g></symbol><symbol id="icn_loop" viewBox="0 0 24 19"><path fill-rule="evenodd" clip-rule="evenodd" d="M14.617.945a1 1 0 011.494.869v.524h.03a7.487 7.487 0 010 14.973h-.132a1 1 0 110-2h.131a5.487 5.487 0 000-10.973h-.029v.524a1 1 0 01-1.494.869l-2.679-1.524a1 1 0 010-1.738L14.617.945zm-6.68 3.393a5.487 5.487 0 000 10.973h.03v-.524a1 1 0 011.494-.869l2.679 1.524a1 1 0 010 1.738l-2.679 1.524a1 1 0 01-1.494-.869v-.524h-.03a7.487 7.487 0 010-14.973h.132a1 1 0 010 2h-.131z" fill="#A6AAB7"/></symbol><symbol id="icn_map-pin"><path d="M15 .12C7.02.12.526 6.611.526 14.591c0 3.158.997 6.158 2.887 8.676L14.107 37.67c.027.035.068.048.098.08.534.572 1.305.428 1.686-.08 3.08-4.109 8.724-11.782 10.894-14.677l.001-.003.013-.018a14.369 14.369 0 002.673-8.38C29.472 6.612 22.98.119 15 .119zm0 22.28c-4.297 0-7.808-3.512-7.808-7.808 0-4.297 3.511-7.808 7.807-7.808 4.297 0 7.808 3.511 7.808 7.808 0 4.296-3.511 7.808-7.807 7.808z" fill="#0191D3"/></symbol><symbol id="icn_menu" viewBox="0 0 25 25"><path d="M2.809 12.5h20m-20 6h20m-20-12h20" stroke="#0191D3" stroke-width="1.8" stroke-linecap="round" stroke-linejoin="round"/></symbol><symbol id="icn_next"><path d="M18.87 15.365l.27.001c.305 0 .582-.307.582-.685V3.525c0-.378-.268-.688-.573-.688h-.01l-.265.001c-.305 0-.576.31-.576.687V14.68c0 .378.266.685.571.685z" fill="#F6F6F6"/><path d="M1.894 15.651h0a1.825 1.825 0 01-.179.1v-.045 0V2.388c.048.023.103.052.164.09h0l10.13 6.315h.001s0 0 0 0a.944.944 0 01.302.272.913.913 0 01-.296.267h0l-10.122 6.32zm10.425-6.57v-.003.002zm-.001-.029V9.05v.002z" fill="#F6F6F6" stroke="#F6F6F6" stroke-width="3"/></symbol><symbol id="icn_notifications"><path d="M19.175 16.821l.79-.614-.79.614zm-5.01-11.403l.396-.918-.396.918zm-.424-.47l-.963.27.001.002.962-.273zm-3.749 0l.963.27.001-.003-.964-.267zm-.423.47L9.173 4.5l.396.918zm-3.146 5.418h1-1zM4.556 16.82l.789.615-.789-.615zm9.077 3.576l-.768-.64.768.64zm-3.535 0l.768-.64-.768.64zm9.866-4.19c-.585-.751-.937-1.15-1.2-1.82-.264-.67-.454-1.67-.454-3.551h-2c0 1.987.196 3.277.592 4.283.395 1.004.976 1.665 1.485 2.317l1.577-1.23zm-1.654-5.371c0-1.94-.475-3.36-1.232-4.397-.752-1.03-1.713-1.592-2.517-1.939l-.792 1.836c.616.266 1.227.643 1.693 1.282.461.632.848 1.615.848 3.218h2zM14.56 4.5c.05.021.072.043.082.054.01.01.04.046.062.121l-1.925.545c.148.521.554.929.99 1.117L14.56 4.5zm.144.177c-.315-1.125-1.287-2.402-2.838-2.402v2c.305 0 .73.29.912.942l1.926-.54zm-2.838-2.402c-1.551 0-2.525 1.278-2.837 2.406l1.927.534c.18-.65.605-.94.91-.94v-2zM9.029 4.68a.303.303 0 01.065-.126.22.22 0 01.08-.053l.79 1.837a1.77 1.77 0 00.991-1.12L9.03 4.68zm.143-.179c-.803.347-1.765.907-2.517 1.938-.757 1.038-1.232 2.456-1.232 4.398h2c0-1.605.387-2.588.848-3.22.465-.637 1.076-1.013 1.694-1.28L9.172 4.5zm-3.749 6.335c0 1.88-.19 2.882-.454 3.551-.265.671-.617 1.07-1.202 1.82l1.578 1.23c.508-.652 1.089-1.313 1.484-2.316.397-1.007.593-2.296.594-4.284h-2zm-1.656 5.372c-.962 1.235-.104 3.068 1.525 3.068v-2c-.009 0 .006 0 .028.014a.1.1 0 01.036.04c.006.012.01.03.009.05a.113.113 0 01-.02.057l-1.578-1.23zm1.525 3.068h13.151v-2H5.293v2zm13.151 0c1.634 0 2.475-1.843 1.521-3.068l-1.578 1.229a.114.114 0 01-.02-.058.091.091 0 01.008-.048.1.1 0 01.036-.04c.023-.015.04-.015.034-.015v2zm-5.078-1c0 .584-.194 1.115-.5 1.482l1.536 1.28c.632-.758.964-1.754.964-2.762h-2zm-.5 1.482c-.302.361-.667.518-1 .518v2c.993 0 1.9-.474 2.536-1.238l-1.536-1.28zm-1 .518c-.333 0-.698-.157-1-.518l-1.536 1.28c.637.764 1.543 1.238 2.536 1.238v-2zm-1-.518c-.305-.367-.5-.898-.5-1.482h-2c0 1.008.332 2.004.964 2.762l1.537-1.28z" fill="#A6AAB7"/></symbol><symbol id="icn_search"><path fill-rule="evenodd" clip-rule="evenodd" d="M18.365 11.275a7 7 0 11-14 0 7 7 0 0114 0zm-1.382 7.032a9 9 0 111.414-1.414l3.443 3.443a1 1 0 11-1.414 1.414l-3.443-3.443z" fill="#A6AAB7"/></symbol><symbol id="icn_share-button-color" viewBox="0 0 507.45 507.45"><path fill="#0191D3" d="M408 178.5c-20.4 0-38.25 7.65-51 20.4L175.95 94.35c2.55-5.1 2.55-12.75 2.55-17.85C178.5 33.15 145.35 0 102 0S25.5 33.15 25.5 76.5 58.65 153 102 153c20.4 0 38.25-7.65 51-20.4l181.05 104.55c-2.55 5.1-2.55 12.75-2.55 17.85 0 5.1 0 12.75 2.55 17.85L153 379.95c-12.75-12.75-30.6-20.4-51-20.4-40.8 0-73.95 33.15-73.95 73.95S61.2 507.45 102 507.45s73.95-33.15 73.95-73.95c0-5.1 0-10.2-2.55-17.85l181.05-107.1c12.75 12.75 30.6 20.4 51 20.4 43.35 0 76.5-33.15 76.5-76.5S451.35 178.5 408 178.5z"/></symbol><symbol id="icn_share-button" viewBox="0 0 507.45 507.45"><path d="M408 178.5c-20.4 0-38.25 7.65-51 20.4L175.95 94.35c2.55-5.1 2.55-12.75 2.55-17.85C178.5 33.15 145.35 0 102 0S25.5 33.15 25.5 76.5 58.65 153 102 153c20.4 0 38.25-7.65 51-20.4l181.05 104.55c-2.55 5.1-2.55 12.75-2.55 17.85 0 5.1 0 12.75 2.55 17.85L153 379.95c-12.75-12.75-30.6-20.4-51-20.4-40.8 0-73.95 33.15-73.95 73.95S61.2 507.45 102 507.45s73.95-33.15 73.95-73.95c0-5.1 0-10.2-2.55-17.85l181.05-107.1c12.75 12.75 30.6 20.4 51 20.4 43.35 0 76.5-33.15 76.5-76.5S451.35 178.5 408 178.5z"/></symbol><symbol id="icn_telegram"><path d="M19.587 4.41c-.21.015-.416.064-.61.146h-.003c-.186.074-1.073.446-2.42 1.012L11.725 7.6l-6.87 2.895.04-.016s-.235.078-.48.246a1.327 1.327 0 00-.383.37 1.09 1.09 0 00-.181.727c.058.472.365.755.584.911.223.159.435.233.435.233h.005l3.194 1.076c.143.46.973 3.188 1.173 3.817.117.375.232.61.375.79.07.09.15.168.248.229.05.03.105.053.16.07l-.032-.009c.01.003.018.01.025.013.026.008.044.01.077.016.506.153.912-.161.912-.161l.023-.019 1.886-1.717 3.16 2.425.072.03c.659.29 1.326.129 1.679-.155.355-.286.493-.651.493-.651l.023-.06 2.442-12.51c.07-.31.087-.598.01-.879a1.182 1.182 0 00-.51-.685 1.224 1.224 0 00-.698-.176zm-.066 1.34c-.003.042.005.037-.013.116v.008l-2.42 12.382c-.01.017-.028.056-.076.094-.051.041-.092.066-.305-.018l-3.865-2.964-2.335 2.129.49-3.133 6.316-5.887c.26-.242.174-.293.174-.293.018-.297-.394-.087-.394-.087L9.13 13.03l-.002-.013-3.818-1.286v-.002l-.01-.002a.195.195 0 00.02-.008l.021-.01.02-.008 6.873-2.895c1.735-.73 3.483-1.466 4.827-2.034a407.88 407.88 0 012.394-1c.054-.022.028-.022.067-.022z" fill="#A6AAB7"/></symbol><symbol id="icn_twitter-color"><g clip-path="url(#clip5)"><path d="M24.236 5.073a10.25 10.25 0 01-2.835.777 4.893 4.893 0 002.164-2.72 9.833 9.833 0 01-3.12 1.192 4.919 4.919 0 00-8.511 3.364c0 .39.033.765.114 1.122-4.09-.2-7.71-2.16-10.141-5.146a4.954 4.954 0 00-.674 2.487c0 1.704.878 3.214 2.186 4.089a4.859 4.859 0 01-2.223-.606v.054a4.943 4.943 0 003.942 4.834c-.4.11-.837.162-1.29.162a4.35 4.35 0 01-.932-.084c.638 1.949 2.447 3.381 4.598 3.428a9.886 9.886 0 01-6.1 2.098 9.31 9.31 0 01-1.178-.067 13.852 13.852 0 007.548 2.208c9.054 0 14.004-7.5 14.004-14.001 0-.218-.008-.428-.018-.636a9.816 9.816 0 002.466-2.555z" fill="#03A9F4"/></g></symbol><symbol id="icn_view"><g clip-path="url(#clip0)" fill="#A6AAB7"><path d="M8.89 6.145c-1.204 0-2.2 1.035-2.2 2.286 0 1.25.996 2.285 2.2 2.285 1.204 0 2.2-1.034 2.2-2.285 0-1.25-.996-2.286-2.2-2.286z"/><path d="M8.89 3.097c-5.567 0-7.24 5.042-7.255 5.093a.791.791 0 00-.001.481c.016.051 1.69 5.093 7.257 5.093s7.24-5.042 7.256-5.093a.792.792 0 000-.481c-.016-.051-1.689-5.093-7.256-5.093zm0 9.143c-3.454 0-5.035-2.295-5.607-3.432a.837.837 0 010-.755c.573-1.138 2.155-3.432 5.608-3.432 3.454 0 5.035 2.295 5.607 3.432.12.239.12.516 0 .755-.573 1.138-2.154 3.432-5.607 3.432z"/></g></symbol><symbol id="icn_vk-color"><g clip-path="url(#clip6)"><path d="M11.979 19.304h1.434s.434-.048.654-.287c.204-.219.197-.63.197-.63s-.029-1.924.865-2.208c.88-.279 2.012 1.86 3.21 2.684.907.622 1.595.486 1.595.486l3.206-.045s1.677-.104.882-1.422c-.065-.108-.464-.975-2.384-2.757-2.01-1.867-1.74-1.564.681-4.79 1.475-1.965 2.065-3.166 1.88-3.679-.176-.489-1.26-.36-1.26-.36l-3.606.021s-.267-.036-.467.083c-.194.117-.318.387-.318.387s-.571 1.521-1.334 2.814c-1.606 2.729-2.25 2.873-2.512 2.703-.61-.394-.458-1.587-.458-2.433 0-2.645.4-3.747-.781-4.032-.393-.095-.681-.158-1.685-.168-1.287-.014-2.378.004-2.994.306-.411.2-.728.65-.534.675.238.031.778.145 1.065.535.37.503.357 1.634.357 1.634s.213 3.113-.497 3.5c-.487.265-1.155-.276-2.587-2.753-.734-1.267-1.289-2.67-1.289-2.67s-.106-.261-.297-.4a1.495 1.495 0 00-.555-.224l-3.43.02s-.514.016-.703.24c-.168.199-.013.61-.013.61s2.685 6.28 5.724 9.448c2.789 2.902 5.954 2.712 5.954 2.712z" fill="#1E88E5"/></g></symbol><symbol id="icn_volume" viewBox="0 0 23 19"><path fill-rule="evenodd" clip-rule="evenodd" d="M18.51 18.5c2.326-2.388 3.75-5.591 3.75-9.112 0-3.412-1.337-6.526-3.537-8.888l-.944.596c2.089 2.187 3.362 5.097 3.362 8.292 0 3.304-1.362 6.303-3.578 8.513l.947.599zM.402 7.58v4.75h3.764l4.42 3.734h.922V3.9h-.923l-4.73 3.681H.401zm15.059-4.687c1.76 1.65 2.853 3.95 2.853 6.494 0 2.655-1.189 5.043-3.086 6.705l-.966-.61c1.796-1.471 2.934-3.656 2.934-6.095 0-2.328-1.037-4.424-2.693-5.89l.958-.604zm-1.403 6.458a6.539 6.539 0 00-1.813-4.549l-.912.576c1.059.932 1.733 2.343 1.733 3.923 0 1.758-.835 3.307-2.103 4.219l1.015.641a6.524 6.524 0 002.08-4.81z" fill="#A6AAB7"/></symbol><symbol id="icn_youtube-color"><g clip-path="url(#clip0)"><path d="M23.216 5.855c-.651-1.158-1.358-1.371-2.796-1.452-1.437-.098-5.05-.138-8.181-.138-3.137 0-6.752.04-8.187.136-1.436.083-2.144.294-2.8 1.454C.58 7.01.235 9.003.235 12.51v.012c0 3.492.345 5.5 1.015 6.644.657 1.158 1.364 1.368 2.8 1.465 1.436.084 5.051.134 8.188.134 3.13 0 6.744-.05 8.182-.132 1.439-.098 2.145-.308 2.796-1.466.677-1.144 1.019-3.151 1.019-6.643v-.012c0-3.509-.342-5.5-1.02-6.657z" fill="#F44336"/><path d="M9.236 17.015v-9l7.5 4.5-7.5 4.5z" fill="#FAFAFA"/></g></symbol><symbol id="icn_youtube"><path d="M20.967 7.58a2.356 2.356 0 00-.573-1.06 2.263 2.263 0 00-1.014-.622c-1.407-.353-7.036-.353-7.036-.353s-5.629 0-7.036.387a2.263 2.263 0 00-1.013.621 2.356 2.356 0 00-.574 1.06 25.045 25.045 0 00-.376 4.449c-.01 1.502.117 3.003.376 4.482.107.386.31.738.588 1.02a2.26 2.26 0 001 .594c1.406.387 7.035.387 7.035.387s5.629 0 7.036-.387a2.263 2.263 0 001.014-.622c.278-.295.476-.66.573-1.06.256-1.456.382-2.934.377-4.414a25.038 25.038 0 00-.377-4.482v0z" stroke="#A6AAB7" stroke-width="2" stroke-linecap="round" stroke-linejoin="round"/><path d="M10.344 15.545l5-3-5-3v6z" stroke="#A6AAB7" stroke-width="2" stroke-linecap="round" stroke-linejoin="round"/></symbol></svg>